<svg width="121" height="28" viewBox="0 0 121 28" fill="none" xmlns="http://www.w3.org/2000/svg">
<path d="M0.519566 18.7001V17.7166H1.29891C1.48447 17.7166 1.64529 17.6919 1.78137 17.6424C1.92981 17.5806 2.04115 17.463 2.11537 17.2899C2.20197 17.1167 2.24527 16.8569 2.24527 16.5105V7.64078C2.24527 7.28203 2.20197 7.02225 2.11537 6.86143C2.04115 6.68824 1.92981 6.57691 1.78137 6.52743C1.64529 6.46557 1.48447 6.43465 1.29891 6.43465H0.519566V5.45118H6.92136V6.43465H6.14201C5.96882 6.43465 5.808 6.46557 5.65955 6.52743C5.51111 6.57691 5.39359 6.68824 5.30699 6.86143C5.23277 7.02225 5.19566 7.28203 5.19566 7.64078V16.5105C5.19566 16.8569 5.23277 17.1167 5.30699 17.2899C5.39359 17.463 5.51111 17.5806 5.65955 17.6424C5.808 17.6919 5.96882 17.7166 6.14201 17.7166H6.92136V18.7001H0.519566ZM10.9919 18.8857C10.1012 18.8857 9.37755 18.7929 8.82087 18.6073C8.27657 18.4094 7.88071 18.1496 7.63329 17.828C7.38588 17.494 7.26218 17.1229 7.26218 16.7146C7.26218 16.3064 7.36114 16.0033 7.55907 15.8054C7.757 15.6075 7.99204 15.4776 8.26419 15.4157C8.53635 15.3415 8.77757 15.3044 8.98787 15.3044C8.98787 15.8116 9.06828 16.2569 9.2291 16.6404C9.40229 17.0115 9.63733 17.296 9.93423 17.494C10.2435 17.6919 10.5961 17.7909 10.9919 17.7909C11.6352 17.7909 12.0991 17.6672 12.3836 17.4197C12.6805 17.1723 12.8289 16.8754 12.8289 16.5291C12.8289 16.2569 12.7609 16.0219 12.6248 15.8239C12.4888 15.6136 12.2537 15.4219 11.9197 15.2487C11.5857 15.0631 11.128 14.8714 10.5466 14.6735C9.87856 14.4384 9.3157 14.1848 8.85798 13.9127C8.40027 13.6282 8.04771 13.2941 7.8003 12.9107C7.56526 12.5148 7.44773 12.0385 7.44773 11.4819C7.44773 10.4922 7.81267 9.75615 8.54253 9.2737C9.2724 8.77888 10.2373 8.53146 11.4373 8.53146C12.2166 8.53146 12.8413 8.61806 13.3114 8.79125C13.7939 8.95206 14.1402 9.16855 14.3505 9.4407C14.5732 9.70049 14.6845 9.97264 14.6845 10.2572C14.6845 10.6778 14.5361 10.9994 14.2392 11.2221C13.9547 11.4324 13.4722 11.5375 12.7918 11.5375C12.7918 10.919 12.6558 10.4427 12.3836 10.1087C12.1115 9.76234 11.7032 9.58915 11.1589 9.58915C10.8991 9.58915 10.6517 9.63245 10.4167 9.71904C10.194 9.80564 10.0085 9.93553 9.86 10.1087C9.72393 10.2695 9.65589 10.4798 9.65589 10.7396C9.65589 10.9994 9.72393 11.2283 9.86 11.4262C10.0085 11.6241 10.2682 11.8159 10.6394 12.0014C11.0105 12.187 11.53 12.3973 12.198 12.6323C12.7547 12.8179 13.2434 13.0467 13.664 13.3189C14.0846 13.5787 14.4124 13.9003 14.6474 14.2838C14.8948 14.6549 15.0185 15.1003 15.0185 15.6198C15.0185 16.6466 14.666 17.4507 13.9609 18.0321C13.2681 18.6011 12.2785 18.8857 10.9919 18.8857ZM18.7721 18.8857C18.2278 18.8857 17.7329 18.7805 17.2876 18.5702C16.8546 18.3475 16.5082 18.0135 16.2485 17.5682C15.9887 17.1105 15.8588 16.5414 15.8588 15.861C15.8588 14.859 16.2052 14.1168 16.8979 13.6343C17.5907 13.1519 18.6298 12.8859 20.0153 12.8364L21.5369 12.7808V11.7602C21.5369 11.3396 21.5121 10.9747 21.4627 10.6654C21.4132 10.3438 21.308 10.0963 21.1472 9.92316C20.9864 9.7376 20.7328 9.64482 20.3864 9.64482C20.0772 9.64482 19.8297 9.73141 19.6442 9.9046C19.4586 10.0778 19.3287 10.319 19.2545 10.6283C19.1803 10.9252 19.1432 11.2654 19.1432 11.6489C18.3143 11.6489 17.6896 11.5561 17.269 11.3705C16.8484 11.185 16.6381 10.8633 16.6381 10.4056C16.6381 9.9479 16.8113 9.58297 17.1577 9.31081C17.5041 9.03866 17.968 8.84073 18.5494 8.71702C19.1308 8.58095 19.7679 8.51291 20.4606 8.51291C21.7596 8.51291 22.7307 8.74795 23.3739 9.21803C24.0296 9.68812 24.3574 10.5046 24.3574 11.6674V16.3992C24.3574 16.7332 24.3883 16.9991 24.4502 17.1971C24.5244 17.3826 24.6419 17.5187 24.8027 17.6053C24.9759 17.6795 25.1986 17.7166 25.4707 17.7166H25.545V18.7001H22.0936L21.7039 17.4197H21.5369C21.2647 17.7538 21.005 18.0321 20.7575 18.2548C20.5225 18.4651 20.2503 18.6197 19.9411 18.7187C19.6318 18.83 19.2421 18.8857 18.7721 18.8857ZM19.7926 17.5311C20.1514 17.5311 20.4606 17.4383 20.7204 17.2527C20.9802 17.0548 21.1781 16.7765 21.3142 16.4177C21.4627 16.059 21.5369 15.6384 21.5369 15.1559V13.7642L20.7019 13.8199C20.2071 13.8446 19.8174 13.9436 19.5329 14.1168C19.2483 14.2776 19.0442 14.5127 18.9205 14.8219C18.7968 15.1188 18.7349 15.4899 18.7349 15.9353C18.7349 16.2816 18.7721 16.5785 18.8463 16.826C18.9205 17.061 19.038 17.2404 19.1988 17.3641C19.3597 17.4754 19.5576 17.5311 19.7926 17.5311ZM32.7564 18.8857C32.0389 18.8857 31.4513 18.7372 30.9936 18.4403C30.5483 18.1311 30.1895 17.7352 29.9174 17.2527H29.7503L29.2308 18.7001H25.7052V17.7166H25.835C26.0701 17.7166 26.2928 17.6857 26.5031 17.6239C26.7257 17.562 26.9051 17.4383 27.0412 17.2527C27.1773 17.0672 27.2453 16.7888 27.2453 16.4177V6.82432C27.2453 6.46557 27.1773 6.1996 27.0412 6.02642C26.9051 5.85323 26.7257 5.73571 26.5031 5.67385C26.2928 5.612 26.0515 5.58107 25.7794 5.58107H25.7052V4.59761H30.0658V7.77067C30.0658 7.95623 30.0596 8.19127 30.0472 8.4758C30.0349 8.74795 30.0163 9.02629 29.9916 9.31081C29.9668 9.59534 29.9421 9.83038 29.9174 10.0159H30.0472C30.3194 9.55822 30.672 9.19948 31.1049 8.93969C31.5503 8.66754 32.1255 8.53146 32.8306 8.53146C34.0429 8.53146 34.9646 8.94588 35.5955 9.77471C36.2387 10.5912 36.5604 11.8963 36.5604 13.69C36.5604 14.89 36.4119 15.8734 36.115 16.6404C35.8305 17.4074 35.4037 17.9764 34.8347 18.3475C34.278 18.7063 33.5852 18.8857 32.7564 18.8857ZM31.9771 17.494C32.3853 17.494 32.7131 17.3455 32.9605 17.0486C33.2203 16.7517 33.4059 16.3188 33.5172 15.7497C33.6409 15.1807 33.7028 14.4879 33.7028 13.6715C33.7028 12.8302 33.6409 12.1313 33.5172 11.5746C33.4059 11.018 33.2203 10.6035 32.9605 10.3314C32.7131 10.0469 32.3791 9.9046 31.9585 9.9046C31.2286 9.9046 30.7276 10.2139 30.4555 10.8324C30.1957 11.4509 30.0658 12.4035 30.0658 13.69C30.0658 14.5065 30.1215 15.1992 30.2328 15.7683C30.3441 16.3249 30.5359 16.7517 30.808 17.0486C31.0926 17.3455 31.4822 17.494 31.9771 17.494ZM42.3761 18.8857C40.805 18.8857 39.6112 18.4403 38.7948 17.5496C37.9783 16.6466 37.5701 15.391 37.5701 13.7828C37.5701 12.0385 37.9721 10.7272 38.7762 9.84893C39.5803 8.95825 40.7122 8.51291 42.1719 8.51291C43.5203 8.51291 44.578 8.89021 45.345 9.64482C46.1243 10.3994 46.514 11.5128 46.514 12.9849V13.9312H40.4277C40.4524 14.7601 40.5638 15.4404 40.7617 15.9724C40.9596 16.492 41.238 16.8754 41.5967 17.1229C41.9678 17.3703 42.407 17.494 42.9142 17.494C43.3471 17.494 43.7306 17.4321 44.0646 17.3084C44.411 17.1723 44.7079 16.993 44.9553 16.7703C45.2027 16.5352 45.3945 16.2755 45.5306 15.9909C45.7037 16.0775 45.8274 16.2012 45.9017 16.3621C45.9883 16.5105 46.0316 16.6899 46.0316 16.9002C46.0316 17.2466 45.9017 17.5744 45.6419 17.8836C45.3821 18.1805 44.9801 18.4218 44.4358 18.6073C43.9038 18.7929 43.2173 18.8857 42.3761 18.8857ZM43.675 12.7437C43.675 12.1128 43.6255 11.5746 43.5265 11.1293C43.4276 10.6716 43.2729 10.3252 43.0626 10.0902C42.8523 9.84275 42.5678 9.71904 42.209 9.71904C41.8627 9.71904 41.5596 9.83656 41.2998 10.0716C41.0524 10.2943 40.8545 10.6345 40.706 11.0922C40.5699 11.5375 40.4895 12.088 40.4648 12.7437H43.675ZM46.8719 18.7001V17.7166H47.0946C47.2802 17.7166 47.4719 17.6919 47.6699 17.6424C47.8802 17.5806 48.0533 17.463 48.1894 17.2899C48.3379 17.1167 48.4121 16.8569 48.4121 16.5105V6.71298C48.4121 6.37898 48.3379 6.13157 48.1894 5.97075C48.041 5.80993 47.8616 5.70478 47.6513 5.6553C47.4534 5.60581 47.2678 5.58107 47.0946 5.58107H46.8719V4.59761H51.2326V16.5105C51.2326 16.8569 51.3006 17.1167 51.4367 17.2899C51.5851 17.463 51.7645 17.5806 51.9748 17.6424C52.1851 17.6919 52.3769 17.7166 52.5501 17.7166H52.7727V18.7001H46.8719ZM63.8567 18.8857C62.4217 18.8857 61.2279 18.6011 60.2754 18.0321C59.3229 17.463 58.6116 16.6713 58.1415 15.6569C57.6714 14.6302 57.4363 13.4302 57.4363 12.0571C57.4363 10.7211 57.6776 9.54585 58.16 8.53146C58.6425 7.5047 59.36 6.7068 60.3125 6.13775C61.265 5.55633 62.4403 5.26562 63.8381 5.26562C64.7907 5.26562 65.5762 5.36459 66.1947 5.56252C66.8256 5.74808 67.2957 6.00167 67.605 6.32331C67.9143 6.64495 68.0689 7.00988 68.0689 7.41811C68.0689 7.87582 67.871 8.25931 67.4751 8.56858C67.0792 8.87784 66.504 9.03247 65.7494 9.03247C65.7494 8.62424 65.6875 8.2222 65.5638 7.82634C65.4401 7.43048 65.2298 7.10266 64.9329 6.84287C64.636 6.58309 64.2278 6.4532 63.7082 6.4532C62.9289 6.4532 62.3042 6.67587 61.8341 7.12121C61.3764 7.55419 61.0486 8.18509 60.8506 9.01392C60.6527 9.84275 60.5537 10.8571 60.5537 12.0571C60.5537 13.2447 60.6713 14.2343 60.9063 15.026C61.1537 15.8178 61.5496 16.4115 62.0939 16.8074C62.6506 17.2033 63.3866 17.4012 64.302 17.4012C64.9082 17.4012 65.4278 17.3146 65.8607 17.1414C66.2937 16.9558 66.6586 16.727 66.9555 16.4548C67.2648 16.1827 67.5246 15.9105 67.7349 15.6384C67.8338 15.7126 67.9081 15.8239 67.9575 15.9724C68.0194 16.1208 68.0503 16.2755 68.0503 16.4363C68.0503 16.6961 67.9761 16.9682 67.8277 17.2527C67.6916 17.5373 67.4627 17.8032 67.1411 18.0506C66.8195 18.2981 66.3865 18.5022 65.8422 18.663C65.3102 18.8114 64.6484 18.8857 63.8567 18.8857ZM73.7279 18.8857C72.2434 18.8857 71.0744 18.4589 70.2208 17.6053C69.3672 16.7394 68.9404 15.4343 68.9404 13.69C68.9404 11.9458 69.3487 10.6468 70.1651 9.79327C70.9816 8.93969 72.1877 8.51291 73.7835 8.51291C75.268 8.51291 76.437 8.93969 77.2906 9.79327C78.1442 10.6468 78.571 11.9458 78.571 13.69C78.571 15.4343 78.1565 16.7394 77.3277 17.6053C76.5112 18.4589 75.3113 18.8857 73.7279 18.8857ZM73.765 17.7166C74.2474 17.7166 74.6247 17.5682 74.8969 17.2713C75.1814 16.962 75.3855 16.5105 75.5092 15.9167C75.6329 15.3106 75.6948 14.5683 75.6948 13.69C75.6948 12.7993 75.6329 12.0633 75.5092 11.4819C75.3855 10.8881 75.1814 10.4427 74.8969 10.1458C74.6124 9.84893 74.2351 9.70049 73.765 9.70049C73.2825 9.70049 72.899 9.84893 72.6145 10.1458C72.33 10.4427 72.1259 10.8881 72.0022 11.4819C71.8785 12.0633 71.8166 12.7993 71.8166 13.69C71.8166 14.5683 71.8785 15.3106 72.0022 15.9167C72.1259 16.5105 72.33 16.962 72.6145 17.2713C72.9114 17.5682 73.2949 17.7166 73.765 17.7166ZM83.4935 18.8857C82.5286 18.8857 81.7863 18.5888 81.2668 17.995C80.7472 17.3888 80.4874 16.461 80.4874 15.2116V11.0551C80.4874 10.6963 80.4441 10.4242 80.3575 10.2386C80.2709 10.0407 80.1349 9.91079 79.9493 9.84893C79.7637 9.77471 79.5225 9.7376 79.2256 9.7376H79.1885V8.75413H83.3079V14.692C83.3079 15.224 83.345 15.6879 83.4193 16.0837C83.5059 16.4672 83.6543 16.7703 83.8646 16.993C84.0749 17.2033 84.3594 17.3084 84.7182 17.3084C85.114 17.3084 85.4357 17.1971 85.6831 16.9744C85.9305 16.7394 86.1099 16.4115 86.2212 15.9909C86.3449 15.558 86.4068 15.057 86.4068 14.4879V10.9252C86.4068 10.5664 86.3449 10.3066 86.2212 10.1458C86.0975 9.97264 85.9367 9.8613 85.7388 9.81182C85.5408 9.76234 85.3182 9.7376 85.0707 9.7376H85.0151V8.75413H89.2273V16.5476C89.2273 16.9064 89.2767 17.1723 89.3757 17.3455C89.487 17.5063 89.6355 17.6115 89.8211 17.661C90.019 17.6981 90.2355 17.7166 90.4705 17.7166H90.619V18.7001H86.9263L86.5181 17.3826H86.4253C86.2398 17.7043 86.0356 17.9641 85.813 18.162C85.6027 18.3599 85.3738 18.5145 85.1264 18.6259C84.879 18.7248 84.6192 18.7929 84.3471 18.83C84.0749 18.8671 83.7904 18.8857 83.4935 18.8857ZM94.6269 18.8857C93.7362 18.8857 93.0125 18.7929 92.4558 18.6073C91.9115 18.4094 91.5157 18.1496 91.2683 17.828C91.0209 17.494 90.8971 17.1229 90.8971 16.7146C90.8971 16.3064 90.9961 16.0033 91.194 15.8054C91.392 15.6075 91.627 15.4776 91.8992 15.4157C92.1713 15.3415 92.4125 15.3044 92.6228 15.3044C92.6228 15.8116 92.7033 16.2569 92.8641 16.6404C93.0373 17.0115 93.2723 17.296 93.5692 17.494C93.8785 17.6919 94.231 17.7909 94.6269 17.7909C95.2702 17.7909 95.7341 17.6672 96.0186 17.4197C96.3155 17.1723 96.4639 16.8754 96.4639 16.5291C96.4639 16.2569 96.3959 16.0219 96.2598 15.8239C96.1237 15.6136 95.8887 15.4219 95.5547 15.2487C95.2207 15.0631 94.763 14.8714 94.1815 14.6735C93.5135 14.4384 92.9507 14.1848 92.493 13.9127C92.0352 13.6282 91.6827 13.2941 91.4353 12.9107C91.2002 12.5148 91.0827 12.0385 91.0827 11.4819C91.0827 10.4922 91.4476 9.75615 92.1775 9.2737C92.9074 8.77888 93.8723 8.53146 95.0722 8.53146C95.8516 8.53146 96.4763 8.61806 96.9464 8.79125C97.4288 8.95206 97.7752 9.16855 97.9855 9.4407C98.2082 9.70049 98.3195 9.97264 98.3195 10.2572C98.3195 10.6778 98.1711 10.9994 97.8742 11.2221C97.5896 11.4324 97.1072 11.5375 96.4268 11.5375C96.4268 10.919 96.2907 10.4427 96.0186 10.1087C95.7464 9.76234 95.3382 9.58915 94.7939 9.58915C94.5341 9.58915 94.2867 9.63245 94.0517 9.71904C93.829 9.80564 93.6434 9.93553 93.495 10.1087C93.3589 10.2695 93.2909 10.4798 93.2909 10.7396C93.2909 10.9994 93.3589 11.2283 93.495 11.4262C93.6434 11.6241 93.9032 11.8159 94.2743 12.0014C94.6454 12.187 95.165 12.3973 95.833 12.6323C96.3897 12.8179 96.8783 13.0467 97.2989 13.3189C97.7195 13.5787 98.0474 13.9003 98.2824 14.2838C98.5298 14.6549 98.6535 15.1003 98.6535 15.6198C98.6535 16.6466 98.301 17.4507 97.5958 18.0321C96.9031 18.6011 95.9134 18.8857 94.6269 18.8857ZM104.337 18.8857C102.766 18.8857 101.572 18.4403 100.756 17.5496C99.9391 16.6466 99.5309 15.391 99.5309 13.7828C99.5309 12.0385 99.9329 10.7272 100.737 9.84893C101.541 8.95825 102.673 8.51291 104.133 8.51291C105.481 8.51291 106.539 8.89021 107.306 9.64482C108.085 10.3994 108.475 11.5128 108.475 12.9849V13.9312H102.388C102.413 14.7601 102.525 15.4404 102.722 15.9724C102.92 16.492 103.199 16.8754 103.557 17.1229C103.929 17.3703 104.368 17.494 104.875 17.494C105.308 17.494 105.691 17.4321 106.025 17.3084C106.372 17.1723 106.669 16.993 106.916 16.7703C107.164 16.5352 107.355 16.2755 107.491 15.9909C107.665 16.0775 107.788 16.2012 107.862 16.3621C107.949 16.5105 107.992 16.6899 107.992 16.9002C107.992 17.2466 107.862 17.5744 107.603 17.8836C107.343 18.1805 106.941 18.4218 106.397 18.6073C105.865 18.7929 105.178 18.8857 104.337 18.8857ZM105.636 12.7437C105.636 12.1128 105.586 11.5746 105.487 11.1293C105.388 10.6716 105.234 10.3252 105.023 10.0902C104.813 9.84275 104.529 9.71904 104.17 9.71904C103.823 9.71904 103.52 9.83656 103.261 10.0716C103.013 10.2943 102.815 10.6345 102.667 11.0922C102.531 11.5375 102.45 12.088 102.426 12.7437H105.636ZM108.888 18.7001V17.7166H108.926C109.21 17.7166 109.457 17.6857 109.668 17.6239C109.89 17.562 110.064 17.4445 110.187 17.2713C110.311 17.0857 110.373 16.8074 110.373 16.4363V10.9437C110.373 10.5974 110.317 10.3376 110.206 10.1644C110.095 9.9912 109.94 9.87986 109.742 9.83038C109.544 9.76852 109.309 9.7376 109.037 9.7376H108.981V8.75413H112.878L113.119 10.0716H113.212C113.459 9.60152 113.725 9.26133 114.01 9.05103C114.307 8.82836 114.622 8.6861 114.956 8.62424C115.303 8.55002 115.668 8.51291 116.051 8.51291C117.004 8.51291 117.752 8.79743 118.296 9.36648C118.841 9.93553 119.113 10.8448 119.113 12.0942V16.3992C119.113 16.7827 119.156 17.0672 119.243 17.2527C119.342 17.4383 119.484 17.562 119.669 17.6239C119.855 17.6857 120.084 17.7166 120.356 17.7166H120.412V18.7001H116.292V12.5952C116.292 11.7911 116.181 11.1726 115.958 10.7396C115.736 10.3066 115.352 10.0902 114.808 10.0902C114.4 10.0902 114.078 10.2262 113.843 10.4984C113.608 10.7582 113.441 11.1107 113.342 11.5561C113.243 11.989 113.193 12.4591 113.193 12.9663V16.5105C113.193 16.8569 113.249 17.1167 113.36 17.2899C113.472 17.463 113.626 17.5806 113.824 17.6424C114.022 17.6919 114.257 17.7166 114.529 17.7166H114.585V18.7001H108.888Z" fill="white"/>
<path d="M39.988 26.4157V22.3582H40.5199L41.9858 24.9065L42.425 25.7477H42.4497C42.4374 25.5416 42.4229 25.3292 42.4064 25.1106C42.3941 24.888 42.3879 24.6694 42.3879 24.455V22.3582H42.8765V26.4157H42.3446L40.8725 23.8612L40.4333 23.0262H40.4086C40.4251 23.2282 40.4395 23.4365 40.4519 23.6509C40.4684 23.8653 40.4766 24.0798 40.4766 24.2942V26.4157H39.988ZM45.4339 26.49C45.1576 26.49 44.9081 26.4343 44.6855 26.323C44.4669 26.2116 44.2937 26.0281 44.1659 25.7725C44.0381 25.5168 43.9742 25.1725 43.9742 24.7395V22.3582H44.4875V24.7519C44.4875 25.0777 44.5288 25.3354 44.6113 25.5251C44.6978 25.7106 44.8112 25.8426 44.9514 25.9209C45.0958 25.9993 45.2566 26.0384 45.4339 26.0384C45.6153 26.0384 45.7782 25.9993 45.9225 25.9209C46.0669 25.8426 46.1803 25.7106 46.2627 25.5251C46.3493 25.3354 46.3926 25.0777 46.3926 24.7519V22.3582H46.8874V24.7395C46.8874 25.1725 46.8235 25.5168 46.6957 25.7725C46.5679 26.0281 46.3947 26.2116 46.1761 26.323C45.9576 26.4343 45.7102 26.49 45.4339 26.49ZM48.8205 26.4157V22.7912H47.5959V22.3582H50.5648V22.7912H49.3401V26.4157H48.8205ZM51.2955 26.4157V22.3582H52.5635C52.8398 22.3582 53.0851 22.3953 53.2995 22.4695C53.514 22.5396 53.681 22.6592 53.8005 22.8283C53.9242 22.9932 53.9861 23.2159 53.9861 23.4963C53.9861 23.8097 53.9036 24.0633 53.7387 24.2571C53.5737 24.4468 53.3511 24.5766 53.0707 24.6467L54.1036 26.4157H53.5222L52.5449 24.7024H51.8089V26.4157H51.2955ZM51.8089 24.2818H52.4893C52.8068 24.2818 53.0501 24.2179 53.2191 24.0901C53.3882 23.9581 53.4727 23.7602 53.4727 23.4963C53.4727 23.2282 53.3882 23.0406 53.2191 22.9334C53.0501 22.8262 52.8068 22.7726 52.4893 22.7726H51.8089V24.2818ZM54.817 26.4157V22.3582H55.3304V26.4157H54.817ZM57.9758 26.49C57.6377 26.49 57.3346 26.4075 57.0666 26.2426C56.8027 26.0735 56.5924 25.8323 56.4357 25.5189C56.2831 25.2055 56.2068 24.8282 56.2068 24.387C56.2068 23.9499 56.2852 23.5746 56.4419 23.2612C56.5986 22.9478 56.813 22.7066 57.0851 22.5376C57.3573 22.3685 57.6645 22.284 58.0067 22.284C58.2542 22.284 58.4727 22.3355 58.6624 22.4386C58.8521 22.5376 59.0046 22.653 59.1201 22.785L58.8418 23.119C58.7345 23.0035 58.6129 22.9107 58.4768 22.8406C58.3407 22.7705 58.1861 22.7355 58.0129 22.7355C57.7573 22.7355 57.5325 22.8035 57.3387 22.9396C57.149 23.0716 57.0006 23.2592 56.8934 23.5025C56.7903 23.7458 56.7388 24.0365 56.7388 24.3746C56.7388 24.7127 56.7903 25.0076 56.8934 25.2591C56.9965 25.5065 57.1408 25.6982 57.3264 25.8343C57.516 25.9704 57.7387 26.0384 57.9944 26.0384C58.1882 26.0384 58.3614 25.9972 58.5139 25.9147C58.6665 25.8323 58.8067 25.7209 58.9345 25.5807L59.2191 25.9024C59.0582 26.0879 58.8768 26.2322 58.6748 26.3353C58.4727 26.4384 58.2397 26.49 57.9758 26.49ZM59.9755 26.4157V22.3582H60.4888V26.4157H59.9755ZM63.0971 26.49C62.759 26.49 62.458 26.4034 62.1941 26.2302C61.9343 26.057 61.7302 25.8116 61.5817 25.4941C61.4374 25.1766 61.3653 24.8014 61.3653 24.3684C61.3653 23.9354 61.4374 23.5643 61.5817 23.2551C61.7302 22.9417 61.9343 22.7025 62.1941 22.5376C62.458 22.3685 62.759 22.284 63.0971 22.284C63.4394 22.284 63.7404 22.3685 64.0002 22.5376C64.26 22.7025 64.4641 22.9417 64.6125 23.2551C64.761 23.5643 64.8352 23.9354 64.8352 24.3684C64.8352 24.8014 64.761 25.1766 64.6125 25.4941C64.4641 25.8116 64.26 26.057 64.0002 26.2302C63.7404 26.4034 63.4394 26.49 63.0971 26.49ZM63.0971 26.0384C63.3404 26.0384 63.5507 25.9704 63.728 25.8343C63.9095 25.6941 64.0497 25.5003 64.1486 25.2529C64.2476 25.0014 64.2971 24.7065 64.2971 24.3684C64.2971 23.8653 64.1878 23.4674 63.9693 23.1746C63.7507 22.8819 63.46 22.7355 63.0971 22.7355C62.7343 22.7355 62.4436 22.8819 62.225 23.1746C62.0065 23.4674 61.8972 23.8653 61.8972 24.3684C61.8972 24.7065 61.9467 25.0014 62.0456 25.2529C62.1446 25.5003 62.2848 25.6941 62.4662 25.8343C62.6477 25.9704 62.858 26.0384 63.0971 26.0384ZM65.7077 26.4157V22.3582H66.2397L67.7056 24.9065L68.1447 25.7477H68.1695C68.1571 25.5416 68.1427 25.3292 68.1262 25.1106C68.1138 24.888 68.1076 24.6694 68.1076 24.455V22.3582H68.5963V26.4157H68.0643L66.5922 23.8612L66.1531 23.0262H66.1283C66.1448 23.2282 66.1593 23.4365 66.1716 23.6509C66.1881 23.8653 66.1964 24.0798 66.1964 24.2942V26.4157H65.7077ZM69.7125 26.4157V22.3582H70.2259V26.4157H69.7125ZM72.463 26.49C72.1785 26.49 71.9146 26.4364 71.6713 26.3291C71.428 26.2178 71.2177 26.0714 71.0404 25.89L71.3497 25.5312C71.494 25.6838 71.6631 25.8075 71.8569 25.9024C72.0548 25.9931 72.2589 26.0384 72.4692 26.0384C72.7373 26.0384 72.9455 25.9786 73.094 25.8591C73.2424 25.7354 73.3166 25.5745 73.3166 25.3766C73.3166 25.2364 73.2857 25.1251 73.2238 25.0426C73.1661 24.9601 73.0857 24.89 72.9826 24.8323C72.8837 24.7746 72.7703 24.7168 72.6424 24.6591L72.061 24.4055C71.9332 24.3519 71.8053 24.2818 71.6775 24.1952C71.5538 24.1086 71.4487 23.9973 71.3621 23.8612C71.2796 23.7251 71.2384 23.5581 71.2384 23.3602C71.2384 23.154 71.292 22.9705 71.3992 22.8097C71.5105 22.6448 71.6631 22.5169 71.8569 22.4262C72.0507 22.3314 72.2692 22.284 72.5125 22.284C72.7558 22.284 72.9806 22.3314 73.1867 22.4262C73.3929 22.5169 73.5682 22.6365 73.7125 22.785L73.4341 23.119C73.3104 22.9994 73.1723 22.9066 73.0197 22.8406C72.8713 22.7705 72.7022 22.7355 72.5125 22.7355C72.2857 22.7355 72.1022 22.7891 71.962 22.8963C71.826 23.0035 71.7579 23.1478 71.7579 23.3293C71.7579 23.4571 71.7909 23.5643 71.8569 23.6509C71.927 23.7334 72.0136 23.8014 72.1167 23.855C72.2198 23.9086 72.3249 23.9581 72.4321 24.0035L73.0074 24.2509C73.1641 24.3169 73.3043 24.3973 73.428 24.4921C73.5558 24.5828 73.6568 24.6962 73.731 24.8323C73.8053 24.9643 73.8424 25.1313 73.8424 25.3333C73.8424 25.5477 73.7867 25.7436 73.6754 25.9209C73.564 26.0941 73.4053 26.2322 73.1991 26.3353C72.9929 26.4384 72.7476 26.49 72.463 26.49ZM75.3618 26.4157V22.7912H74.1371V22.3582H77.106V22.7912H75.8813V26.4157H75.3618ZM78.288 24.1457L78.0963 24.7643H79.3148L79.123 24.1457C79.0488 23.9189 78.9787 23.6942 78.9127 23.4715C78.8468 23.2447 78.7808 23.0138 78.7148 22.7788H78.6901C78.6282 23.0138 78.5643 23.2447 78.4983 23.4715C78.4323 23.6942 78.3622 23.9189 78.288 24.1457ZM77.051 26.4157L78.4241 22.3582H79.0055L80.3786 26.4157H79.8282L79.4447 25.1787H77.9664L77.5767 26.4157H77.051Z" fill="white"/>
<line x1="82.7285" y1="24.2816" x2="116.941" y2="24.2816" stroke="white" stroke-width="0.386581"/>
<line x1="2.89937" y1="24.2816" x2="37.1118" y2="24.2816" stroke="white" stroke-width="0.386581"/>
</svg>
